<svg width="19" height="14" fill="none" xmlns="http://www.w3.org/2000/svg"><path stroke="#CCC" d="M.5.5h18v13H.5z"/><path d="M18 1H1v12h17V1z" fill="#00AFCA"/><path d="M9.966 7.655a1.615 1.615 0 1 0 0-3.23 1.615 1.615 0 0 0 0 3.23zM9.966 4.205c.096-.001.132-.061.132-.133 0-.096-.133-.553-.133-.553s-.131.457-.131.553c0 .072.036.133.132.133zM9.678 9.538a.5.5 0 0 0-.127.02c-.056.008-.11.028-.166.037l-.023.004-.037.003c.002.01.004.021.004.032a.1.1 0 0 1-.004.03.073.073 0 0 1-.016.025.088.088 0 0 1-.027.021.083.083 0 0 1-.03.008c-.012 0-.023 0-.033-.004a.09.09 0 0 1-.03-.019.258.258 0 0 1-.034.006.139.139 0 0 1-.031 0 .194.194 0 0 1-.065-.028c-.041.025-.087.047-.111.09-.014.019-.017.04-.02.063a.175.175 0 0 0 .017.084c.004.008.008-.028.021-.032a.212.212 0 0 1 .08-.04c.025-.013.022 0 .012.02-.003.01-.016.048.002.028a.78.78 0 0 1 .259-.05A4.21 4.21 0 0 1 9.7 9.82c.12.001.24.003.36.007.057.002.115.015.171.005.014-.003.035-.004.043-.012-.025-.015-.055-.015-.084-.019h-.229c-.063-.006-.13-.007-.19-.031-.016-.007-.03-.022-.046-.005a.273.273 0 0 1-.07.015.275.275 0 0 1-.124-.021c.028-.04.062-.073.093-.11a.962.962 0 0 1-.074-.014c.044-.03.084-.064.127-.096z" fill="#FEC50C"/><path d="M11.546 9.952c-.086.052-.153-.04-.226-.068-.051.028-.056.123-.105.167-.058.066-.129-.018-.124-.083-.069.058-.104.19-.216.173-.053-.043-.093-.134-.133-.03-.034.05-.122.122-.168.045-.014-.067-.047-.147-.084-.04-.026.077-.107.133-.185.1-.043-.036.035-.165-.02-.156-.082.054-.13.188-.243.177-.044-.05.027-.134-.022-.189-.057.074-.12.181-.22.189-.047-.039.002-.15-.028-.167-.102.061-.209.17-.337.136.05-.19.258-.257.433-.272.301-.037.618.03.908-.078.046-.028.16-.069.12-.135-.036-.052.092-.032.105-.092-.008-.078.06-.067.124-.074.293-.012.582.05.873.06.022.142-.135.242-.262.198-.06.01-.152-.14-.134-.031-.012.057-.004.132-.056.17zm-2.488-.29c.067.061.115-.013.178-.04.212-.072.398-.2.58-.328.111-.091.207-.21.355-.24.29-.087.599-.077.89-.157.221-.304.597-.412.913-.586.07-.022.098-.08.12-.145.12-.19.285-.358.479-.473a.447.447 0 0 1 .304-.056.509.509 0 0 1-.164.319c.07-.002.13-.046.202-.044.024.127-.113.194-.186.273.04.01.196.02.111.062-.108.075-.231.126-.33.213.091.017.102.036.008.07-.05.034-.148.046-.158.113.07.042-.031.085-.07.099-.076.017-.154.05-.055.107-.037.057-.118.069-.184.063.02.064.049.137-.035.165a1.293 1.293 0 0 1-.643.268c.295.023.598-.032.85-.192.033-.039.207-.081.11-.114-.046-.02-.145-.04-.152-.075.137-.085.308-.055.455-.105.004-.047-.111-.034-.154-.045-.103-.008-.097-.034.002-.044.125-.033.267-.04.372-.121-.086-.04-.194-.005-.285-.037.155-.068.338-.075.477-.177.063-.07-.081-.048-.123-.046-.086.015-.126-.027-.029-.062.167-.123.378-.203.495-.38.027-.04.065-.16-.024-.117-.116.038-.218.169-.35.129.26-.203.509-.433.687-.712.01-.081-.117-.09-.15-.026-.168.161-.32.352-.534.453.205-.198.375-.433.523-.677.032-.072.118-.16.071-.24-.075-.061-.168-.005-.207.07-.13.17-.229.368-.396.506.146-.28.298-.577.302-.9 0-.067-.014-.165-.104-.152-.072.013-.055.12-.084.174-.065.22-.096.46-.229.652.03-.179.082-.366.042-.547-.019-.08-.15-.046-.132.034-.156.79-.687 1.482-1.38 1.882-.318.18-.672.295-1.033.348-.098.021-.203.009-.295.042-.225.172-.361.46-.646.55-.127.064-.294.077-.385.196a.103.103 0 0 0-.01.05" fill="#FEC50C"/><path d="M9.91 8.86c-.042.076-.067.163-.121.232-.163-.148-.398-.143-.604-.153-.17-.01-.355-.025-.487-.146-.138-.114-.251-.26-.406-.353a.999.999 0 0 1-.397-.183c-.243-.198-.382-.491-.619-.695-.045-.045-.099-.08-.15-.117-.047.012-.026.115-.084.062-.032-.022-.113-.025-.12.007.073.096.145.205.155.327-.05.005-.137-.01-.162.008.066.098.15.186.246.255-.046.008-.136.004-.154.022.095.077.197.156.321.176.025.034-.037.099.015.127.031.013.132.034.062.068-.047.032-.03.107.031.106.039.02.125.024.132.058-.034.035-.14.076-.05.109.085.046.181.077.277.08-.048.04-.108.064-.157.102.222.13.469.217.713.3.097.032.195.062.296.081a2.426 2.426 0 0 1-.842-.222 7.509 7.509 0 0 0-.418-.171c.062-.032.134-.04.198-.068-.134-.027-.28-.036-.397-.109.018-.032.086-.034.124-.05.071-.017.115-.038.015-.044-.1-.027-.217-.015-.305-.076.005-.036.098-.023.136-.04.048-.007.1-.014.139-.046-.156-.065-.36-.02-.482-.157-.028-.052.087-.01.12-.019.084 0 .174.027.254-.007-.227-.1-.47-.193-.644-.378-.02-.03-.077-.11-.03-.12.134.017.232.165.376.142.02-.026-.084-.068-.11-.105-.21-.18-.414-.377-.561-.613-.01-.08.114-.09.146-.03.161.155.307.336.507.442.071.034-.04-.041-.056-.069a3.585 3.585 0 0 1-.49-.695c-.024-.045-.062-.128.007-.152.07-.035.138.012.173.072.137.171.237.376.406.519-.144-.28-.298-.576-.302-.898.003-.063.007-.158.092-.155.071-.01.06.08.083.124.07.237.101.493.242.703-.031-.176-.077-.357-.047-.536.007-.059.073-.076.117-.041.034.085.042.19.073.282.181.618.587 1.162 1.116 1.527.435.299.952.477 1.48.508.047.004.095.005.143.008M9.24 9.679a.028.028 0 1 0 0-.057.028.028 0 0 0 0 .057z" fill="#FEC50C"/><path d="M9.238 9.658a.012.012 0 0 0 .012-.012.012.012 0 0 0-.012-.011.012.012 0 0 0-.012.011c0 .006.005.012.012.012z" fill="#FEC50C" stroke="#00AFCA" stroke-width=".114"/><path d="M2.44 1.875s-.115-.097-.154-.048c-.063.078.193.467.193.605 0 .225-.15.286-.335.318-.125.022-.327-.009-.327-.009.038-.051.063-.066.127-.07a.268.268 0 0 1-.145-.244c0-.194.08-.273.08-.492 0-.12-.1-.275-.1-.275.176.018.263.18.214.31a.086.086 0 0 0 .075-.023c.013.036-.008.078-.035.114.022.012.038.005.073-.003-.003.037-.025.077-.08.114.158-.041.255.069.255.184 0 .087-.06.15-.12.15a.122.122 0 0 1-.064-.02c-.011.024-.005.056.006.08-.043-.012-.071-.038-.051-.092a.11.11 0 0 1-.079-.036.093.093 0 0 1 .079-.036c-.025-.05.002-.079.042-.101 0 0-.025.101.04.101.028 0 .055-.01.055-.052 0-.037-.033-.089-.108-.085-.075.003-.136.051-.136.171 0 .11.09.166.207.17.106.003.186-.055.186-.164 0-.146-.21-.477-.21-.607 0-.097.087-.152.173-.152.11 0 .204.11.204.11l-.065.082z" fill="#FEC50C"/><path d="M2.464 4.506c0 .243-.218.368-.39.368-.23 0-.354-.138-.354-.32 0-.102.019-.166.066-.264l.53-1.1a.323.323 0 0 0 .025-.146c0-.098-.096-.179-.196-.182-.092-.002-.191.086-.191.185 0 .122.063.176.127.176.08 0 .111-.033.111-.089 0-.039-.019-.055-.046-.055-.068 0-.049.091-.049.091a.063.063 0 0 1-.045-.085.123.123 0 0 1-.066-.04.124.124 0 0 1 .066-.035c-.016-.053.005-.079.051-.09a.092.092 0 0 0-.006.057c.072-.02.183.012.183.138 0 .124-.086.229-.248.202.039.019.058.057.062.099-.03-.012-.062-.013-.062-.013.019.033.045.062.044.127-.03-.013-.058-.039-.096-.023.06.12-.014.282-.203.321a.392.392 0 0 0 .103-.255c0-.282-.078-.33-.078-.526a.29.29 0 0 1 .126-.23v.003a.168.168 0 0 1-.111-.079.755.755 0 0 1 .408.004c.113.013.192.1.215.144a.436.436 0 0 1 0 .347l-.539 1.142a.374.374 0 0 0-.037.16c0 .145.132.195.207.195.09 0 .181-.068.181-.154 0-.054-.029-.086-.071-.086-.102 0-.096.086-.075.14-.064-.028-.1-.079-.09-.132a.162.162 0 0 1-.102-.058c.025-.03.055-.054.102-.055-.02-.083.035-.118.09-.138-.018.061-.029.131.075.131.075 0 .135.013.17.062l.008-.324c.004-.097-.13-.094-.216-.065.032-.112.098-.173.251-.157a.12.12 0 0 1-.076-.118c0-.091.074-.192.122-.222l.024.949z" fill="#FEC50C"/></svg>